<svg width="82" height="82" viewBox="0 0 82 82" fill="none" xmlns="http://www.w3.org/2000/svg">
<path d="M41.9272 4.07008L45.3903 13.6868C49.2371 24.36 57.6424 32.765 68.3161 36.6117L77.9332 40.0745C78.8001 40.3893 78.8001 41.6184 77.9332 41.9289L68.3161 45.3917C57.6424 49.2384 49.2371 57.6433 45.3903 68.3166L41.9272 77.9333C41.6124 78.8001 40.3833 78.8001 40.0728 77.9333L36.6098 68.3166C32.7629 57.6433 24.3577 49.2384 13.6839 45.3917L4.06681 41.9289C3.19998 41.6141 3.19998 40.385 4.06681 40.0745L13.6839 36.6117C24.3577 32.765 32.7629 24.36 36.6098 13.6868L40.0728 4.07008C40.3833 3.19897 41.6124 3.19897 41.9272 4.07008Z" fill="white"/>
</svg>
