<svg width="64" height="64" viewBox="0 0 64 64" fill="none" xmlns="http://www.w3.org/2000/svg">
<path d="M32 2C36.4197 2 40.6183 2.96176 44.3999 4.68524L40.6188 8.46637C40.2407 8.84397 39.9289 9.27256 39.6849 9.73346C37.2753 8.89987 34.6894 8.44531 32 8.44531C19.0119 8.44531 8.44531 19.0119 8.44531 32C8.44531 44.9881 19.0119 55.5547 32 55.5547C44.9881 55.5547 55.5547 44.9881 55.5547 32C55.5547 29.3117 55.1005 26.7278 54.2675 24.3187C54.728 24.0752 55.1551 23.7607 55.5336 23.3821L59.3157 19.6001C61.0391 23.3816 62 27.5804 62 32C62 48.5422 48.5422 62 32 62C15.4578 62 2 48.5422 2 32C2 15.4578 15.4578 2 32 2Z" fill="url(#paint0_linear_24_768)"/>
<path d="M32 11.9609C34.5163 11.9609 36.9251 12.4274 39.1457 13.2784L39.4661 17.076L36.6793 19.8638C35.2263 19.3016 33.6489 18.9922 32 18.9922C24.8273 18.9922 18.9922 24.8273 18.9922 32C18.9922 39.1727 24.8273 45.0078 32 45.0078C39.1727 45.0078 45.0078 39.1727 45.0078 32C45.0078 30.3512 44.6992 28.7736 44.1371 27.3207L46.924 24.5339L50.7216 24.8543C51.5726 27.0749 52.0391 29.4837 52.0391 32C52.0391 43.0495 43.0495 52.0391 32 52.0391C20.9505 52.0391 11.9609 43.0495 11.9609 32C11.9609 20.9505 20.9505 11.9609 32 11.9609Z" fill="url(#paint1_linear_24_768)"/>
<path d="M32 22.5078C32.6335 22.5078 33.2529 22.5719 33.8521 22.6909L28.2711 28.2711C27.275 29.2672 26.7266 30.5915 26.7266 32C26.7266 33.4085 27.275 34.7328 28.2711 35.7289C29.2672 36.725 30.5915 37.2734 32 37.2734C33.4085 37.2734 34.7328 36.725 35.7289 35.7289L41.31 30.1488C41.4289 30.7479 41.4922 31.3666 41.4922 32C41.4922 37.2341 37.2341 41.4922 32 41.4922C26.7659 41.4922 22.5078 37.2341 22.5078 32C22.5078 26.7659 26.7659 22.5078 32 22.5078Z" fill="url(#paint2_linear_24_768)"/>
<path d="M50.5614 3.49414C51.0453 3.0109 51.7663 2.85147 52.4089 3.08673C53.051 3.32167 53.4984 3.90811 53.5561 4.59003L54.0111 9.98798L59.41 10.4439C60.0915 10.5011 60.6779 10.9486 60.9133 11.5911C61.1481 12.2337 60.9886 12.9543 60.5049 13.4377L53.048 20.8956C52.717 21.2265 52.2689 21.411 51.8047 21.411C51.7554 21.411 51.7066 21.4087 51.6573 21.4046L45.5928 20.8928L33.2433 33.2424C32.9004 33.5857 32.45 33.7578 32 33.7578C31.55 33.7578 31.1005 33.5857 30.7576 33.2424C30.071 32.5562 30.071 31.4429 30.7576 30.7567L43.1072 18.4072L42.5954 12.3427C42.552 11.8269 42.7383 11.3181 43.1044 10.952L50.5614 3.49414Z" fill="url(#paint3_linear_24_768)"/>
<defs>
<linearGradient id="paint0_linear_24_768" x1="2" y1="32" x2="62" y2="32" gradientUnits="userSpaceOnUse">
<stop stop-color="#E11B22"/>
<stop offset="1" stop-color="#FFD400"/>
</linearGradient>
<linearGradient id="paint1_linear_24_768" x1="2" y1="32" x2="62" y2="32" gradientUnits="userSpaceOnUse">
<stop stop-color="#E11B22"/>
<stop offset="1" stop-color="#FFD400"/>
</linearGradient>
<linearGradient id="paint2_linear_24_768" x1="2" y1="32" x2="62" y2="32" gradientUnits="userSpaceOnUse">
<stop stop-color="#E11B22"/>
<stop offset="1" stop-color="#FFD400"/>
</linearGradient>
<linearGradient id="paint3_linear_24_768" x1="2" y1="32" x2="62" y2="32" gradientUnits="userSpaceOnUse">
<stop stop-color="#E11B22"/>
<stop offset="1" stop-color="#FFD400"/>
</linearGradient>
</defs>
</svg>
