<svg width="64" height="64" viewBox="0 0 64 64" fill="none" xmlns="http://www.w3.org/2000/svg">
<path fill-rule="evenodd" clip-rule="evenodd" d="M31.1051 2.13655C31.6877 1.95448 32.3123 1.95448 32.8949 2.13655L56.8949 9.63654C58.1471 10.0279 59 11.1878 59 12.5V29C59 37.4984 54.9989 45.5009 48.2 50.5999L33.8 61.3999C32.7332 62.2 31.2668 62.2 30.2 61.3999L15.8 50.5999C9.00125 45.5009 5 37.4984 5 29V12.5C5 11.1878 5.85275 10.0279 7.10519 9.63654L31.1051 2.13655ZM43.3046 24.9205C44.3654 23.6477 44.1935 21.756 42.9206 20.6953C41.6477 19.6346 39.7559 19.8066 38.6954 21.0794L30.6011 30.7925L24.9027 26.1182C23.6217 25.0672 21.7314 25.2538 20.6805 26.5349C19.6297 27.8159 19.8163 29.7062 21.0973 30.7568L29.0972 37.3193C30.3713 38.3645 32.2499 38.1863 33.3047 36.9206L43.3046 24.9205Z" fill="url(#paint0_linear_24_765)"/>
<defs>
<linearGradient id="paint0_linear_24_765" x1="5" y1="32" x2="59" y2="32" gradientUnits="userSpaceOnUse">
<stop stop-color="#E11B22"/>
<stop offset="1" stop-color="#FFD400"/>
</linearGradient>
</defs>
</svg>
