<svg width="235" height="48" viewBox="0 0 235 48" fill="none" xmlns="http://www.w3.org/2000/svg">
<path d="M87.742 8.31809C90.0584 8.31817 92.1227 8.76144 93.9343 9.64934C95.746 10.5374 97.1722 11.756 98.2118 13.3029C99.2807 14.8496 99.8155 16.5973 99.8155 18.5449H93.0435C92.9246 17.1126 92.4039 15.9947 91.4832 15.1926C90.5923 14.3909 89.2711 13.9901 87.5193 13.99C85.7968 13.99 84.4749 14.2911 83.5542 14.8926C82.6334 15.4942 82.1731 16.2528 82.1731 17.1694C82.1731 18.0287 82.4989 18.7021 83.1522 19.1891C83.8056 19.676 84.6673 20.0767 85.7364 20.3918C86.8353 20.7069 88.0238 21.008 89.301 21.2944C90.6077 21.5522 91.8995 21.8818 93.1765 22.2828C94.4536 22.6839 95.6271 23.228 96.6963 23.9154C97.7953 24.6029 98.6719 25.5205 99.3253 26.6663C99.9785 27.7834 100.306 29.2157 100.306 30.9627C100.306 33.741 99.2211 35.9034 97.0535 37.4502C94.8853 38.9971 91.8404 39.7712 87.9199 39.7712C85.5142 39.7712 83.361 39.3266 81.4602 38.4386C79.5593 37.5506 78.0438 36.3333 76.9152 34.7864C75.7867 33.2396 75.1778 31.478 75.0887 29.5016H81.9056C82.0244 30.4469 82.3652 31.2636 82.9295 31.9511C83.4938 32.6386 84.222 33.1685 85.1131 33.5409C86.0338 33.9132 87.0589 34.0993 88.1875 34.0993C89.7018 34.0993 90.9789 33.8562 92.0182 33.3694C93.0577 32.8538 93.5771 32.0512 93.5771 30.9627C93.5771 30.1893 93.2514 29.5728 92.598 29.1145C91.9446 28.6562 91.068 28.284 89.9691 27.9976C88.8998 27.7111 87.7264 27.4242 86.4493 27.1377C85.1723 26.8513 83.8804 26.5075 82.5737 26.1065C81.2966 25.6768 80.1081 25.1043 79.0091 24.3882C77.94 23.6721 77.0783 22.7415 76.425 21.5958C75.7715 20.4213 75.4445 18.9455 75.4445 17.1694C75.4445 15.4507 75.9653 13.9322 77.0048 12.6145C78.074 11.2683 79.5293 10.2227 81.3706 9.47792C83.2417 8.70449 85.366 8.31809 87.742 8.31809Z" fill="#D3DEE9"/>
<path d="M142.629 29.1145C142.866 30.604 143.446 31.8357 144.367 32.8096C145.317 33.7836 146.744 34.2708 148.644 34.2708C149.862 34.2707 150.872 33.9993 151.674 33.4551C152.476 32.911 153.039 32.2374 153.366 31.4355H160.093C159.737 33.0968 159.039 34.5573 157.999 35.8176C156.96 37.0494 155.638 38.0238 154.034 38.74C152.46 39.4273 150.664 39.7711 148.644 39.7712C146.328 39.7712 144.263 39.3267 142.451 38.4386C140.669 37.5506 139.229 36.3047 138.13 34.7007C137.031 33.0965 136.333 31.2343 136.036 29.1145H142.629Z" fill="#D3DEE9"/>
<path fill-rule="evenodd" clip-rule="evenodd" d="M178.616 26.5793H184.986V39.0842H178.616V36.7632C177.933 37.6797 176.996 38.41 175.809 38.9543C174.65 39.4985 173.418 39.7711 172.111 39.7712C170.477 39.7712 169.021 39.4843 167.744 38.9114C166.497 38.3098 165.501 37.4503 164.759 36.3333C164.046 35.2162 163.69 33.8551 163.69 32.2511C163.69 30.3894 164.151 28.9146 165.071 27.8261C165.992 26.7377 167.195 25.9208 168.679 25.3766C170.194 24.8323 171.814 24.4601 173.537 24.2596C175.289 24.0591 176.982 23.9441 178.616 23.9154V26.5793ZM178.616 29.1574C175.675 29.1001 173.551 29.3159 172.244 29.8029C170.967 30.2613 170.328 31.0199 170.328 32.0797C170.328 32.8529 170.625 33.3971 171.219 33.7123C171.842 34.0273 172.556 34.185 173.358 34.1851C174.13 34.1851 174.917 34.07 175.719 33.8409C176.551 33.6117 177.234 33.1683 177.768 32.5096C178.332 31.8508 178.616 30.8764 178.616 29.5873V29.1574Z" fill="#D3DEE9"/>
<path d="M112.011 15.0212H116.822V20.2632H112.011V33.8409H117.535V39.0842H105.64V20.2632H102.788V15.0212H105.64V9.00515H112.011V15.0212Z" fill="#D3DEE9"/>
<path d="M135.171 20.3489C133.419 20.3489 131.948 20.5351 130.76 20.9074C129.602 21.2797 128.725 21.9675 128.131 22.9699C127.567 23.9438 127.285 25.3912 127.285 27.3105V39.0842H120.914V15.0212H127.285V18.6775C127.443 18.2819 127.635 17.8935 127.864 17.5136C128.428 16.597 129.29 15.8371 130.448 15.2355C131.606 14.634 133.181 14.3342 135.171 14.3342V20.3489Z" fill="#D3DEE9"/>
<path d="M195.377 23.8418L202.594 15.0212H210.079L202.078 24.7538L210.658 39.0842H203.708L198.283 29.3717L195.377 32.9087V39.0842H189.005V6.85693H195.377V23.8418Z" fill="#D3DEE9"/>
<path d="M227.929 20.3489C226.177 20.3489 224.707 20.5351 223.519 20.9074C222.36 21.2797 221.484 21.9675 220.89 22.9699C220.325 23.9438 220.044 25.3912 220.044 27.3105V39.0842H213.672V15.0212H220.044V18.6775C220.202 18.2819 220.393 17.8935 220.622 17.5136C221.186 16.597 222.048 15.8371 223.206 15.2355C224.365 14.634 225.939 14.3342 227.929 14.3342V20.3489Z" fill="#D3DEE9"/>
<path d="M232.219 39.0842H225.402V32.5096H232.219V39.0842Z" fill="#D3DEE9"/>
<path fill-rule="evenodd" clip-rule="evenodd" d="M148.644 14.3342C150.337 14.3342 151.941 14.6625 153.456 15.3212C154.97 15.9801 156.277 16.9403 157.376 18.2007C158.475 19.4611 159.277 21.008 159.782 22.8413C160.287 24.6745 160.361 26.7657 160.005 29.1145H142.629V25.4489C142.618 25.7159 142.617 25.9929 142.629 26.2793H135.901C136.05 23.6725 136.719 21.495 137.907 19.7476C139.095 17.9716 140.625 16.6249 142.496 15.7083C144.367 14.7916 146.417 14.3342 148.644 14.3342ZM148.644 19.8333C146.951 19.8333 145.495 20.3773 144.277 21.4659C143.526 22.1363 143.031 23.0251 142.79 24.131H153.684C153.645 23.6869 153.541 23.2426 153.366 22.7985C153.069 21.9391 152.534 21.2373 151.762 20.6931C150.99 20.1203 149.951 19.8334 148.644 19.8333Z" fill="#D3DEE9"/>
<path d="M174.205 14.3342C177.472 14.3343 180.011 15.1936 181.823 16.9123C183.634 18.6023 184.673 20.9366 184.941 23.9154H178.616C178.526 22.7412 178.184 21.782 177.59 21.0373C176.996 20.2926 175.868 19.9191 174.205 19.919C172.928 19.919 171.947 20.1206 171.264 20.5217C170.581 20.894 170.105 21.3945 169.838 22.0243C169.6 22.6258 169.482 23.2566 169.482 23.9154H162.844C162.844 22.2827 163.29 20.7357 164.181 19.2748C165.072 17.814 166.363 16.6249 168.056 15.7083C169.749 14.7916 171.799 14.3342 174.205 14.3342Z" fill="#D3DEE9"/>
<path d="M33.124 44.0005C36.6584 41.8761 39.0095 39.5805 39.1337 39.4582L38.6402 38.7279C32.812 41.0962 28.203 42.1524 23.6958 42.1524C19.9318 42.1524 16.1958 41.403 11.9385 39.794C7.25742 38.0249 5.13985 35.4527 4.18768 33.6066C3.92238 33.092 3.73056 32.6063 3.5921 32.1691C5.44545 34.4197 8.11903 35.7802 8.2604 35.8511L8.6942 35.0655C8.69338 35.0651 8.52988 34.97 8.27455 34.7785C7.55031 34.2357 6.20326 33.0104 5.31951 30.9043C4.21 28.2604 4.1885 25.1138 5.25554 21.5519C6.79776 16.4041 10.2825 13.3077 12.9342 11.6166C13.3049 11.3803 13.6695 11.1642 14.0239 10.9669C12.068 12.546 10.5433 14.3284 9.46943 16.2957C8.12693 18.7554 7.94854 20.7087 7.92586 21.2488C7.92232 21.3313 7.92241 21.3791 7.92241 21.3791L8.80544 21.524C9.87765 18.4231 12.5177 15.3485 16.4401 12.6329C21.1403 9.37888 27.4881 6.73183 35.307 4.76533C39.4623 3.72029 43.4541 3.19043 47.1713 3.19043C51.3963 3.19043 55.2728 3.89461 58.3818 5.22691C61.2373 6.45057 63.401 8.16829 64.6392 10.1944C65.8053 12.1027 65.5877 14.3026 65.0618 16.051C65.06 14.976 64.9019 13.7108 64.4343 12.3277C63.2679 8.87793 57.9502 5.39693 48.6998 5.39693C44.3039 5.39693 39.5308 6.19069 34.5132 7.7562C27.1247 10.0614 21.6337 12.9757 18.1928 16.4182C14.8272 19.7852 14.5217 22.5749 14.5466 23.618C14.6105 26.3012 18.635 27.9679 25.0492 27.9677C28.5807 27.9676 32.6723 27.4796 37.2102 26.5174C44.7215 24.9246 50.2907 22.3381 53.6399 20.4487C55.8642 19.1939 57.4162 18.0866 58.3051 17.3986C58.0705 18.913 57.4472 21.8535 55.854 25.2477C54.0644 29.0604 51.5563 32.4194 48.3992 35.2313C43.5302 39.5678 38.7118 41.9418 35.5271 43.1698C34.6466 43.5091 33.8391 43.782 33.124 44.0005Z" fill="url(#paint0_linear_28_4355)"/>
<path d="M42.8918 8.00635C42.8918 8.00635 27.3303 11.1516 20.7791 18.7236C14.2278 26.2956 28.195 25.4354 33.125 24.3279C33.125 24.3279 21.2194 24.7873 22.2179 20.8755C23.0414 17.6494 33.0921 11.2661 42.8918 8.00635Z" fill="url(#paint1_linear_28_4355)"/>
<path d="M8.46611 35.4519C8.46611 35.4519 4.24287 33.3333 2.7825 30.0492C2.7825 30.0492 2.45358 36.6882 11.7762 40.2115C21.0988 43.7348 28.4711 43.3438 38.813 39.1413C38.813 39.1413 34.9961 42.9004 29.7761 45.2567C29.7761 45.2567 39.1553 44.0666 48.7033 35.5628C52.402 32.2685 54.76 28.6432 56.2657 25.4351C36.994 43.0676 15.6123 39.9968 8.46611 35.4519Z" fill="url(#paint2_linear_28_4355)"/>
<path d="M8.46608 35.4523C8.30457 35.3496 8.15286 35.2419 8.00006 35.1348C8.2856 35.3487 8.46608 35.4523 8.46608 35.4523Z" fill="#F04E23"/>
<path d="M10.5525 27.8911C8.62922 25.674 8.08109 23.4245 8.37916 21.2669C8.41808 20.341 9.01974 13.6828 18.2592 8.72119C18.2592 8.72119 7.88211 11.2049 4.82045 21.4247C2.25838 29.9771 6.53561 34.0366 8.00007 35.1344C8.15295 35.2415 8.30466 35.3492 8.46608 35.4519C15.6122 39.9968 36.9939 43.0675 56.2657 25.4351C58.647 20.3618 58.8912 16.3352 58.8912 16.3352C50.0498 33.6377 19.1518 37.8042 10.5525 27.8911Z" fill="url(#paint3_linear_28_4355)"/>
<path d="M65.0277 9.96315C61.5361 4.24934 50.7029 0.431247 35.195 4.33149C18.227 8.599 10.3947 15.5414 8.37608 21.3794C8.37608 21.3794 8.37617 21.3382 8.37917 21.267C8.08111 23.4246 8.62923 25.6741 10.5525 27.8913C19.1519 37.8044 50.0499 33.6378 58.8913 16.3355C58.8913 16.3355 51.5457 23.0197 37.1149 26.0798C22.6841 29.1397 15.0776 26.853 15.0002 23.6073C14.9288 20.6127 17.8968 13.4096 34.6501 8.18261C51.4034 2.95562 62.2983 7.42447 64.0039 12.4691C65.3537 16.461 64.0081 19.4529 64.0081 19.4529C64.0081 19.4529 67.5782 14.1371 65.0277 9.96315Z" fill="url(#paint4_linear_28_4355)"/>
<defs>
<linearGradient id="paint0_linear_28_4355" x1="3.59211" y1="23.5953" x2="65.4874" y2="23.5953" gradientUnits="userSpaceOnUse">
<stop stop-color="#820000"/>
<stop offset="0.648" stop-color="#E11B22"/>
<stop offset="1" stop-color="#FFD400"/>
</linearGradient>
<linearGradient id="paint1_linear_28_4355" x1="19.0627" y1="16.5282" x2="42.8919" y2="16.5282" gradientUnits="userSpaceOnUse">
<stop stop-color="#F04E23"/>
<stop offset="0.648" stop-color="#FCAF17"/>
<stop offset="1" stop-color="#FFD400"/>
</linearGradient>
<linearGradient id="paint2_linear_28_4355" x1="2.78105" y1="35.346" x2="56.2657" y2="35.346" gradientUnits="userSpaceOnUse">
<stop stop-color="#BA141A"/>
<stop offset="0.648" stop-color="#E11B22"/>
<stop offset="1" stop-color="#FFD400"/>
</linearGradient>
<linearGradient id="paint3_linear_28_4355" x1="4.01969" y1="23.8478" x2="58.8912" y2="23.8478" gradientUnits="userSpaceOnUse">
<stop stop-color="#9E0B0F"/>
<stop offset="0.648" stop-color="#E11B22"/>
<stop offset="1" stop-color="#FCAF17"/>
</linearGradient>
<linearGradient id="paint4_linear_28_4355" x1="8.30304" y1="17.9553" x2="65.9463" y2="17.9553" gradientUnits="userSpaceOnUse">
<stop stop-color="#820000"/>
<stop offset="0.648" stop-color="#E11B22"/>
<stop offset="1" stop-color="#FFD400"/>
</linearGradient>
</defs>
</svg>
