<svg width="170" height="35" viewBox="0 0 170 35" fill="none" xmlns="http://www.w3.org/2000/svg">
<path d="M63.473 6.06543C65.1487 6.06548 66.6419 6.38871 67.9524 7.03613C69.2631 7.68365 70.2948 8.57226 71.0468 9.7002C71.8201 10.828 72.207 12.1023 72.207 13.5225H67.308C67.2221 12.4781 66.8454 11.663 66.1793 11.0781C65.5348 10.4936 64.5791 10.2012 63.3119 10.2012C62.0657 10.2012 61.1095 10.4208 60.4434 10.8594C59.7774 11.298 59.4444 11.8511 59.4444 12.5195C59.4444 13.1461 59.6801 13.6371 60.1527 13.9922C60.6253 14.3472 61.2487 14.6394 62.0221 14.8691C62.817 15.0989 63.6768 15.3185 64.6007 15.5273C65.546 15.7153 66.4805 15.9557 67.4043 16.248C68.3282 16.5405 69.1771 16.9372 69.9505 17.4385C70.7455 17.9398 71.3797 18.6088 71.8523 19.4443C72.3249 20.2589 72.5616 21.3032 72.5616 22.5771C72.5616 24.603 71.777 26.1797 70.2089 27.3076C68.6404 28.4355 66.4377 29 63.6017 29C61.8614 29 60.3037 28.6758 58.9287 28.0283C57.5536 27.3808 56.4572 26.4932 55.6408 25.3652C54.8244 24.2374 54.384 22.9529 54.3195 21.5117H59.2509C59.3368 22.201 59.5833 22.7966 59.9916 23.2979C60.3998 23.7992 60.9266 24.1855 61.5712 24.457C62.2372 24.7285 62.9788 24.8643 63.7952 24.8643C64.8907 24.8642 65.8145 24.687 66.5664 24.332C67.3183 23.9561 67.6941 23.3708 67.6941 22.5771C67.6941 22.0132 67.4585 21.5637 66.9858 21.2295C66.5131 20.8953 65.879 20.6239 65.084 20.415C64.3105 20.2062 63.4617 19.997 62.5378 19.7881C61.614 19.5792 60.6795 19.3285 59.7342 19.0361C58.8103 18.7228 57.9505 18.3054 57.1555 17.7832C56.3821 17.2611 55.7588 16.5825 55.2861 15.7471C54.8135 14.8907 54.5769 13.8146 54.5769 12.5195C54.5769 11.2663 54.9536 10.1591 55.7056 9.19824C56.4791 8.21663 57.5318 7.45417 58.8638 6.91113C60.2174 6.34718 61.7541 6.06543 63.473 6.06543Z" fill="#D3DEE9"/>
<path d="M103.178 21.2295C103.35 22.3155 103.77 23.2137 104.436 23.9238C105.123 24.634 106.155 24.9893 107.53 24.9893C108.411 24.9892 109.142 24.7913 109.722 24.3945C110.302 23.9977 110.709 23.5066 110.946 22.9219H115.812C115.554 24.1332 115.049 25.1982 114.297 26.1172C113.545 27.0154 112.589 27.7259 111.429 28.248C110.29 28.7492 108.991 29 107.53 29C105.854 29 104.36 28.6758 103.05 28.0283C101.761 27.3808 100.719 26.4723 99.9237 25.3027C99.1287 24.133 98.6238 22.7752 98.4089 21.2295H103.178Z" fill="#D3DEE9"/>
<path fill-rule="evenodd" clip-rule="evenodd" d="M129.211 19.3809H133.819V28.499H129.211V26.8066C128.717 27.475 128.04 28.0074 127.181 28.4043C126.343 28.8011 125.451 29 124.506 29C123.324 29 122.271 28.7908 121.347 28.373C120.444 27.9344 119.724 27.3076 119.187 26.4932C118.672 25.6786 118.414 24.6862 118.414 23.5166C118.414 22.1591 118.747 21.0837 119.413 20.29C120.079 19.4964 120.949 18.9008 122.023 18.5039C123.119 18.107 124.291 17.8357 125.537 17.6895C126.805 17.5433 128.03 17.4594 129.211 17.4385V19.3809ZM129.211 21.2607C127.084 21.219 125.547 21.3764 124.602 21.7314C123.678 22.0656 123.216 22.6188 123.216 23.3916C123.216 23.9554 123.431 24.3522 123.86 24.582C124.312 24.8118 124.828 24.9267 125.408 24.9268C125.966 24.9268 126.536 24.8429 127.116 24.6758C127.717 24.5087 128.212 24.1854 128.598 23.7051C129.006 23.2247 129.211 22.5142 129.211 21.5742V21.2607Z" fill="#D3DEE9"/>
<path d="M81.0294 10.9531H84.5098V14.7754H81.0294V24.6758H85.0255V28.499H76.4202V14.7754H74.3573V10.9531H76.4202V6.56641H81.0294V10.9531Z" fill="#D3DEE9"/>
<path d="M97.7832 14.8379C96.5158 14.8379 95.4519 14.9737 94.5926 15.2451C93.7547 15.5166 93.1205 16.0181 92.6907 16.749C92.2825 17.4592 92.0787 18.5146 92.0787 19.9141V28.499H87.4696V10.9531H92.0787V13.6191C92.1931 13.3307 92.3318 13.0475 92.4972 12.7705C92.9055 12.1021 93.5287 11.548 94.3666 11.1094C95.2046 10.6708 96.3437 10.4521 97.7832 10.4521V14.8379Z" fill="#D3DEE9"/>
<path d="M141.336 17.3848L146.557 10.9531H151.972L146.184 18.0498L152.391 28.499H147.363L143.438 21.417L141.336 23.9961V28.499H136.727V5H141.336V17.3848Z" fill="#D3DEE9"/>
<path d="M164.885 14.8379C163.618 14.8379 162.554 14.9737 161.694 15.2451C160.856 15.5166 160.222 16.0181 159.792 16.749C159.384 17.4592 159.18 18.5146 159.18 19.9141V28.499H154.571V10.9531H159.18V13.6191C159.295 13.3307 159.434 13.0475 159.599 12.7705C160.007 12.1021 160.63 11.548 161.468 11.1094C162.306 10.6708 163.445 10.4521 164.885 10.4521V14.8379Z" fill="#D3DEE9"/>
<path d="M167.988 28.499H163.057V23.7051H167.988V28.499Z" fill="#D3DEE9"/>
<path fill-rule="evenodd" clip-rule="evenodd" d="M107.53 10.4521C108.755 10.4522 109.915 10.6915 111.01 11.1719C112.106 11.6523 113.051 12.3524 113.846 13.2715C114.641 14.1905 115.222 15.3185 115.587 16.6553C115.952 17.992 116.006 19.5168 115.748 21.2295H103.178V18.5566C103.17 18.7513 103.17 18.9533 103.178 19.1621H98.3117C98.4191 17.2613 98.9032 15.6736 99.7626 14.3994C100.622 13.1045 101.728 12.1225 103.082 11.4541C104.436 10.7857 105.919 10.4521 107.53 10.4521ZM107.53 14.4619C106.305 14.4619 105.252 14.8586 104.371 15.6523C103.827 16.1412 103.469 16.7893 103.295 17.5957H111.175C111.147 17.2719 111.072 16.9479 110.946 16.624C110.731 15.9974 110.344 15.4857 109.785 15.0889C109.227 14.6712 108.475 14.462 107.53 14.4619Z" fill="#D3DEE9"/>
<path d="M126.021 10.4521C128.384 10.4522 130.221 11.0788 131.532 12.332C132.842 13.5643 133.594 15.2664 133.787 17.4385H129.211C129.147 16.5823 128.899 15.8829 128.47 15.3398C128.04 14.7968 127.224 14.5245 126.021 14.5244C125.097 14.5244 124.387 14.6714 123.893 14.9639C123.399 15.2353 123.055 15.6003 122.861 16.0596C122.69 16.4982 122.604 16.9581 122.604 17.4385H117.802C117.802 16.2479 118.124 15.1199 118.769 14.0547C119.414 12.9895 120.348 12.1225 121.573 11.4541C122.797 10.7857 124.28 10.4521 126.021 10.4521Z" fill="#D3DEE9"/>
<path d="M23.9621 32.0839C26.5189 30.5348 28.2197 28.8609 28.3095 28.7718L27.9525 28.2392C23.7364 29.9661 20.4022 30.7362 17.1417 30.7362C14.4188 30.7362 11.7161 30.1898 8.6364 29.0166C5.25008 27.7266 3.71822 25.8511 3.02942 24.5049C2.83749 24.1298 2.69874 23.7756 2.59857 23.4567C3.93929 25.0978 5.87337 26.0898 5.97564 26.1416L6.28945 25.5687C6.28886 25.5684 6.17058 25.4991 5.98588 25.3595C5.46195 24.9637 4.4875 24.0702 3.84818 22.5345C3.04556 20.6067 3.03001 18.3123 3.80191 15.715C4.91756 11.9614 7.43844 9.70365 9.3567 8.47059C9.62484 8.29826 9.88863 8.14067 10.145 7.99686C8.73006 9.14829 7.62708 10.4479 6.85026 11.8824C5.87908 13.676 5.75004 15.1002 5.73363 15.494C5.73107 15.5542 5.73114 15.5891 5.73114 15.5891L6.36992 15.6947C7.14556 13.4336 9.05536 11.1918 11.8929 9.21165C15.293 6.8389 19.885 4.90876 25.5413 3.47485C28.5472 2.71284 31.4349 2.32649 34.1239 2.32649C37.1803 2.32649 39.9846 2.83995 42.2337 3.81142C44.2994 4.70367 45.8646 5.95618 46.7603 7.43354C47.6039 8.82503 47.4464 10.4291 47.066 11.704C47.0647 10.9201 46.9504 9.99761 46.6121 8.98908C45.7683 6.47362 41.9215 3.9354 35.2297 3.9354C32.0497 3.9354 28.5968 4.51418 24.967 5.65569C19.6221 7.33658 15.6499 9.46157 13.1607 11.9717C10.7261 14.4268 10.5051 16.461 10.5231 17.2216C10.5694 19.1781 13.4807 20.3934 18.1207 20.3932C20.6754 20.3932 23.6353 20.0374 26.918 19.3357C32.3518 18.1743 36.3805 16.2883 38.8033 14.9107C40.4124 13.9957 41.5352 13.1883 42.1782 12.6866C42.0085 13.7909 41.5576 15.935 40.405 18.4099C39.1105 21.19 37.2961 23.6393 35.0122 25.6896C31.49 28.8516 28.0043 30.5827 25.7005 31.4781C25.0635 31.7255 24.4794 31.9245 23.9621 32.0839Z" fill="url(#paint0_linear_1_2174)"/>
<path d="M31.0281 5.83813C31.0281 5.83813 19.7709 8.13154 15.0317 13.6528C10.2925 19.1741 20.3964 18.5468 23.9627 17.7393C23.9627 17.7393 15.3502 18.0743 16.0726 15.2219C16.6683 12.8695 23.939 8.21506 31.0281 5.83813Z" fill="url(#paint1_linear_1_2174)"/>
<path d="M6.12443 25.8506C6.12443 25.8506 3.06931 24.3058 2.01287 21.9111C2.01287 21.9111 1.77494 26.7521 8.51896 29.3212C15.263 31.8903 20.5961 31.6051 28.0775 28.5408C28.0775 28.5408 25.3163 31.2819 21.5402 33C21.5402 33 28.3251 32.1322 35.2322 25.9315C37.9078 23.5294 39.6136 20.886 40.7029 18.5467C26.7616 31.4037 11.294 29.1646 6.12443 25.8506Z" fill="url(#paint2_linear_1_2174)"/>
<path d="M6.12441 25.8506C6.00757 25.7758 5.89783 25.6972 5.78729 25.6191C5.99385 25.7751 6.12441 25.8506 6.12441 25.8506Z" fill="#F04E23"/>
<path d="M7.63376 20.3375C6.24243 18.7208 5.84592 17.0806 6.06154 15.5073C6.0897 14.8322 6.52494 9.97725 13.2088 6.35944C13.2088 6.35944 5.70197 8.1705 3.48716 15.6224C1.63374 21.8585 4.72791 24.8186 5.7873 25.6191C5.8979 25.6972 6.00765 25.7757 6.12442 25.8506C11.294 29.1646 26.7616 31.4036 40.7029 18.5467C42.4255 14.8474 42.6022 11.9113 42.6022 11.9113C36.2063 24.5277 13.8545 27.5658 7.63376 20.3375Z" fill="url(#paint3_linear_1_2174)"/>
<path d="M47.0413 7.26493C44.5155 3.09861 36.6786 0.314584 25.4602 3.15851C13.1855 6.27024 7.51951 11.3324 6.05927 15.5893C6.05927 15.5893 6.05933 15.5592 6.0615 15.5073C5.84588 17.0805 6.2424 18.7208 7.63372 20.3375C13.8545 27.5658 36.2063 24.5277 42.6022 11.9114C42.6022 11.9114 37.2883 16.7853 26.8491 19.0166C16.4098 21.2478 10.9071 19.5805 10.8512 17.2138C10.7995 15.0302 12.9466 9.77797 25.066 5.96662C37.1854 2.15527 45.0668 5.41381 46.3007 9.09218C47.2771 12.0029 46.3037 14.1845 46.3037 14.1845C46.3037 14.1845 48.8863 10.3084 47.0413 7.26493Z" fill="url(#paint4_linear_1_2174)"/>
<defs>
<linearGradient id="paint0_linear_1_2174" x1="2.59858" y1="17.2051" x2="47.3739" y2="17.2051" gradientUnits="userSpaceOnUse">
<stop stop-color="#820000"/>
<stop offset="0.648" stop-color="#E11B22"/>
<stop offset="1" stop-color="#FFD400"/>
</linearGradient>
<linearGradient id="paint1_linear_1_2174" x1="13.79" y1="12.052" x2="31.0282" y2="12.052" gradientUnits="userSpaceOnUse">
<stop stop-color="#F04E23"/>
<stop offset="0.648" stop-color="#FCAF17"/>
<stop offset="1" stop-color="#FFD400"/>
</linearGradient>
<linearGradient id="paint2_linear_1_2174" x1="2.01183" y1="25.7734" x2="40.7029" y2="25.7734" gradientUnits="userSpaceOnUse">
<stop stop-color="#BA141A"/>
<stop offset="0.648" stop-color="#E11B22"/>
<stop offset="1" stop-color="#FFD400"/>
</linearGradient>
<linearGradient id="paint3_linear_1_2174" x1="2.90788" y1="17.3893" x2="42.6022" y2="17.3893" gradientUnits="userSpaceOnUse">
<stop stop-color="#9E0B0F"/>
<stop offset="0.648" stop-color="#E11B22"/>
<stop offset="1" stop-color="#FCAF17"/>
</linearGradient>
<linearGradient id="paint4_linear_1_2174" x1="6.00643" y1="13.0925" x2="47.7058" y2="13.0925" gradientUnits="userSpaceOnUse">
<stop stop-color="#820000"/>
<stop offset="0.648" stop-color="#E11B22"/>
<stop offset="1" stop-color="#FFD400"/>
</linearGradient>
</defs>
</svg>
